<svg height='100px' width='100px'  fill="#FFFFFF" xmlns:dc="http://purl.org/dc/elements/1.1/" xmlns:cc="http://creativecommons.org/ns#" xmlns:rdf="http://www.w3.org/1999/02/22-rdf-syntax-ns#" xmlns:svg="http://www.w3.org/2000/svg" xmlns="http://www.w3.org/2000/svg" xmlns:sodipodi="http://sodipodi.sourceforge.net/DTD/sodipodi-0.dtd" xmlns:inkscape="http://www.inkscape.org/namespaces/inkscape" viewBox="0 0 47.999997 48" version="1.1" x="0px" y="0px"><path style="color:#000000;font-style:normal;font-variant:normal;font-weight:normal;font-stretch:normal;font-size:medium;line-height:normal;font-family:sans-serif;text-indent:0;text-align:start;text-decoration:none;text-decoration-line:none;text-decoration-style:solid;text-decoration-color:#000000;letter-spacing:normal;word-spacing:normal;text-transform:none;direction:ltr;block-progression:tb;writing-mode:lr-tb;baseline-shift:baseline;text-anchor:start;white-space:normal;clip-rule:nonzero;display:inline;overflow:visible;visibility:visible;opacity:1;isolation:auto;mix-blend-mode:normal;color-interpolation:sRGB;color-interpolation-filters:linearRGB;solid-color:#000000;solid-opacity:1;fill:#FFFFFF;fill-opacity:1;fill-rule:evenodd;stroke:none;stroke-width:1.99999988;stroke-linecap:butt;stroke-linejoin:round;stroke-miterlimit:4;stroke-dasharray:none;stroke-dashoffset:0;stroke-opacity:1;marker:none;color-rendering:auto;image-rendering:auto;shape-rendering:auto;text-rendering:auto;enable-background:accumulate" d="M 23.999711,0 C 22.712272,-2.5477598e-7 21.425064,0.48873912 20.447019,1.4667969 L 1.4667774,20.447266 c -1.95610016,1.956124 -1.95611027,5.149368 0,7.105468 L 20.447019,46.533203 c 1.956095,1.956106 5.149307,1.956113 7.105383,0 L 46.532644,27.552734 c 1.956077,-1.956103 1.956069,-5.149344 0,-7.105468 L 27.552402,1.4667969 C 26.574354,0.48874305 25.287149,2.5477598e-7 23.999711,0 Z m 0,1.984375 c 0.77009,5e-7 1.540093,0.2979291 2.138646,0.8964844 L 45.118599,21.861328 c 1.197074,1.197108 1.197066,3.080262 0,4.277344 L 26.138357,45.119141 c -1.197064,1.197086 -3.080205,1.197094 -4.277293,0 L 2.880823,26.138672 c -1.1970921,-1.197086 -1.1971022,-3.080227 0,-4.277344 L 21.861064,2.8808594 C 22.459611,2.2823051 23.229621,1.9843745 23.999711,1.984375 Z m 0,18.015625 c -2.197264,0 -3.999952,1.802706 -3.999952,4 0,2.197294 1.802688,4 3.999952,4 2.197263,0 3.999952,-1.802706 3.999952,-4 0,-2.197294 -1.802689,-4 -3.999952,-4 z m 0,2 c 1.116396,0 1.999976,0.883586 1.999976,2 0,1.116414 -0.88358,2 -1.999976,2 -1.116397,0 -1.999976,-0.883586 -1.999976,-2 0,-1.116414 0.883579,-2 1.999976,-2 z"></path></svg>