<svg height='100px' width='100px'  fill="#FFFFFF" xmlns:dc="http://purl.org/dc/elements/1.1/" xmlns:cc="http://creativecommons.org/ns#" xmlns:rdf="http://www.w3.org/1999/02/22-rdf-syntax-ns#" xmlns:svg="http://www.w3.org/2000/svg" xmlns="http://www.w3.org/2000/svg" xmlns:sodipodi="http://sodipodi.sourceforge.net/DTD/sodipodi-0.dtd" xmlns:inkscape="http://www.inkscape.org/namespaces/inkscape" viewBox="0 0 47.999997 48" version="1.1" x="0px" y="0px"><path style="color:#000000;font-style:normal;font-variant:normal;font-weight:normal;font-stretch:normal;font-size:medium;line-height:normal;font-family:sans-serif;text-indent:0;text-align:start;text-decoration:none;text-decoration-line:none;text-decoration-style:solid;text-decoration-color:#000000;letter-spacing:normal;word-spacing:normal;text-transform:none;direction:ltr;block-progression:tb;writing-mode:lr-tb;baseline-shift:baseline;text-anchor:start;white-space:normal;clip-rule:nonzero;display:inline;overflow:visible;visibility:visible;opacity:1;isolation:auto;mix-blend-mode:normal;color-interpolation:sRGB;color-interpolation-filters:linearRGB;solid-color:#000000;solid-opacity:1;fill:#FFFFFF;fill-opacity:1;fill-rule:evenodd;stroke:none;stroke-width:1.99999988;stroke-linecap:butt;stroke-linejoin:round;stroke-miterlimit:4;stroke-dasharray:none;stroke-dashoffset:0;stroke-opacity:1;marker:none;color-rendering:auto;image-rendering:auto;shape-rendering:auto;text-rendering:auto;enable-background:accumulate" d="M 24.048828 -0.05078125 C 22.761398 -0.05078125 21.474134 0.43795762 20.496094 1.4160156 L 1.5175781 20.396484 C -0.43853191 22.352608 -0.4385419 25.545853 1.5175781 27.501953 L 20.496094 46.482422 C 22.452184 48.438532 25.645482 48.438542 27.601562 46.482422 L 46.582031 27.501953 C 48.538111 25.54585 48.538101 22.352608 46.582031 20.396484 L 27.601562 1.4160156 C 26.623513 0.43796163 25.336268 -0.05078125 24.048828 -0.05078125 z M 24.048828 1.9335938 C 24.818918 1.9335938 25.58894 2.2315231 26.1875 2.8300781 L 45.167969 21.810547 C 46.365049 23.007655 46.365039 24.890809 45.167969 26.087891 L 26.1875 45.068359 C 24.99043 46.265449 23.107236 46.265449 21.910156 45.068359 L 2.9316406 26.087891 C 1.7345506 24.890805 1.7345406 23.007664 2.9316406 21.810547 L 21.910156 2.8300781 C 22.508696 2.2315241 23.278738 1.9335938 24.048828 1.9335938 z M 14 19.900391 C 11.80271 19.900391 10 21.703101 10 23.900391 C 10 26.097681 11.80271 27.900391 14 27.900391 C 16.19729 27.900391 18 26.097681 18 23.900391 C 18 21.703101 16.19729 19.900391 14 19.900391 z M 34 19.900391 C 31.80271 19.900391 30 21.703101 30 23.900391 C 30 26.097681 31.80271 27.900391 34 27.900391 C 36.19729 27.900391 38 26.097681 38 23.900391 C 38 21.703101 36.19729 19.900391 34 19.900391 z M 14 21.900391 C 15.11641 21.900391 16 22.783981 16 23.900391 C 16 25.016801 15.11641 25.900391 14 25.900391 C 12.88359 25.900391 12 25.016801 12 23.900391 C 12 22.783981 12.88359 21.900391 14 21.900391 z M 34 21.900391 C 35.11641 21.900391 36 22.783981 36 23.900391 C 36 25.016801 35.11641 25.900391 34 25.900391 C 32.88359 25.900391 32 25.016801 32 23.900391 C 32 22.783981 32.88359 21.900391 34 21.900391 z " transform="translate(-1.9073486e-6,0)"></path></svg>