<svg height='100px' width='100px'  fill="#FFFFFF" xmlns:dc="http://purl.org/dc/elements/1.1/" xmlns:cc="http://creativecommons.org/ns#" xmlns:rdf="http://www.w3.org/1999/02/22-rdf-syntax-ns#" xmlns:svg="http://www.w3.org/2000/svg" xmlns="http://www.w3.org/2000/svg" xmlns:sodipodi="http://sodipodi.sourceforge.net/DTD/sodipodi-0.dtd" xmlns:inkscape="http://www.inkscape.org/namespaces/inkscape" viewBox="0 0 47.999997 48" version="1.1" x="0px" y="0px"><path style="color:#000000;font-style:normal;font-variant:normal;font-weight:normal;font-stretch:normal;font-size:medium;line-height:normal;font-family:sans-serif;text-indent:0;text-align:start;text-decoration:none;text-decoration-line:none;text-decoration-style:solid;text-decoration-color:#000000;letter-spacing:normal;word-spacing:normal;text-transform:none;direction:ltr;block-progression:tb;writing-mode:lr-tb;baseline-shift:baseline;text-anchor:start;white-space:normal;clip-rule:nonzero;display:inline;overflow:visible;visibility:visible;opacity:1;isolation:auto;mix-blend-mode:normal;color-interpolation:sRGB;color-interpolation-filters:linearRGB;solid-color:#000000;solid-opacity:1;fill:#FFFFFF;fill-opacity:1;fill-rule:evenodd;stroke:none;stroke-width:1.99999988;stroke-linecap:butt;stroke-linejoin:round;stroke-miterlimit:4;stroke-dasharray:none;stroke-dashoffset:0;stroke-opacity:1;marker:none;color-rendering:auto;image-rendering:auto;shape-rendering:auto;text-rendering:auto;enable-background:accumulate" d="M 24 0 C 22.71257 0 21.425306 0.48873887 20.447266 1.4667969 L 1.4667969 20.447266 C -0.48931309 22.40339 -0.4893231 25.596634 1.4667969 27.552734 L 20.447266 46.533203 C 22.403356 48.489313 25.596654 48.489323 27.552734 46.533203 L 46.533203 27.552734 C 48.489283 25.596631 48.489273 22.40339 46.533203 20.447266 L 27.552734 1.4667969 C 26.574684 0.48874287 25.28744 0 24 0 z M 24 1.984375 C 24.77009 1.984375 25.540112 2.2823044 26.138672 2.8808594 L 45.119141 21.861328 C 46.316221 23.058436 46.316211 24.94159 45.119141 26.138672 L 26.138672 45.119141 C 24.941602 46.316231 23.058408 46.316231 21.861328 45.119141 L 2.8808594 26.138672 C 1.6837694 24.941586 1.6837594 23.058445 2.8808594 21.861328 L 21.861328 2.8808594 C 22.459868 2.2823054 23.22991 1.984375 24 1.984375 z M 24 10 C 21.80271 10 20 11.802706 20 14 C 20 16.197294 21.80271 18 24 18 C 26.19729 18 28 16.197294 28 14 C 28 11.802706 26.19729 10 24 10 z M 24 12 C 25.11641 12 26 12.883586 26 14 C 26 15.116414 25.11641 16 24 16 C 22.88359 16 22 15.116414 22 14 C 22 12.883586 22.88359 12 24 12 z M 14 20 C 11.80271 20 10 21.802706 10 24 C 10 26.197294 11.80271 28 14 28 C 16.19729 28 18 26.197294 18 24 C 18 21.802706 16.19729 20 14 20 z M 34 20 C 31.80271 20 30 21.802706 30 24 C 30 26.197294 31.80271 28 34 28 C 36.19729 28 38 26.197294 38 24 C 38 21.802706 36.19729 20 34 20 z M 14 22 C 15.11641 22 16 22.883586 16 24 C 16 25.116414 15.11641 26 14 26 C 12.88359 26 12 25.116414 12 24 C 12 22.883586 12.88359 22 14 22 z M 34 22 C 35.11641 22 36 22.883586 36 24 C 36 25.116414 35.11641 26 34 26 C 32.88359 26 32 25.116414 32 24 C 32 22.883586 32.88359 22 34 22 z M 24 30 C 21.80271 30 20 31.802706 20 34 C 20 36.197294 21.80271 38 24 38 C 26.19729 38 28 36.197294 28 34 C 28 31.802706 26.19729 30 24 30 z M 24 32 C 25.11641 32 26 32.883586 26 34 C 26 35.116414 25.11641 36 24 36 C 22.88359 36 22 35.116414 22 34 C 22 32.883586 22.88359 32 24 32 z " transform="translate(-1.9073486e-6,0)"></path></svg>