<svg height='100px' width='100px'  fill="#FFFFFF" xmlns:dc="http://purl.org/dc/elements/1.1/" xmlns:cc="http://creativecommons.org/ns#" xmlns:rdf="http://www.w3.org/1999/02/22-rdf-syntax-ns#" xmlns:svg="http://www.w3.org/2000/svg" xmlns="http://www.w3.org/2000/svg" xmlns:sodipodi="http://sodipodi.sourceforge.net/DTD/sodipodi-0.dtd" xmlns:inkscape="http://www.inkscape.org/namespaces/inkscape" viewBox="0 0 47.999997 48" version="1.1" x="0px" y="0px"><path style="color:#000000;font-style:normal;font-variant:normal;font-weight:normal;font-stretch:normal;font-size:medium;line-height:normal;font-family:sans-serif;text-indent:0;text-align:start;text-decoration:none;text-decoration-line:none;text-decoration-style:solid;text-decoration-color:#000000;letter-spacing:normal;word-spacing:normal;text-transform:none;direction:ltr;block-progression:tb;writing-mode:lr-tb;baseline-shift:baseline;text-anchor:start;white-space:normal;clip-rule:nonzero;display:inline;overflow:visible;visibility:visible;opacity:1;isolation:auto;mix-blend-mode:normal;color-interpolation:sRGB;color-interpolation-filters:linearRGB;solid-color:#000000;solid-opacity:1;fill:#FFFFFF;fill-opacity:1;fill-rule:evenodd;stroke:none;stroke-width:1.99999988;stroke-linecap:butt;stroke-linejoin:round;stroke-miterlimit:4;stroke-dasharray:none;stroke-dashoffset:0;stroke-opacity:1;marker:none;color-rendering:auto;image-rendering:auto;shape-rendering:auto;text-rendering:auto;enable-background:accumulate" d="M 24 0 C 22.71257 0 21.425306 0.48873887 20.447266 1.4667969 L 1.4667969 20.447266 C -0.48931308 22.40339 -0.48932307 25.596634 1.4667969 27.552734 L 20.447266 46.533203 C 22.403356 48.489313 25.596654 48.489323 27.552734 46.533203 L 46.533203 27.552734 C 48.489283 25.596631 48.489273 22.40339 46.533203 20.447266 L 27.552734 1.4667969 C 26.574684 0.48874287 25.28744 1.4456029e-19 24 0 z M 24 1.984375 C 24.77009 1.984375 25.540112 2.2823044 26.138672 2.8808594 L 45.119141 21.861328 C 46.316221 23.058436 46.316211 24.94159 45.119141 26.138672 L 26.138672 45.119141 C 24.941602 46.316231 23.058408 46.316231 21.861328 45.119141 L 2.8808594 26.138672 C 1.6837694 24.941586 1.6837594 23.058445 2.8808594 21.861328 L 21.861328 2.8808594 C 22.459868 2.2823054 23.22991 1.984375 24 1.984375 z M 22 8 C 19.80271 8 18 9.802707 18 12 C 18 14.197294 19.80271 16 22 16 C 24.19729 16 26 14.197294 26 12 C 26 9.802707 24.19729 8 22 8 z M 22 10 C 23.11641 10 24 10.883587 24 12 C 24 13.116414 23.11641 14 22 14 C 20.88359 14 20 13.116414 20 12 C 20 10.883587 20.88359 10 22 10 z M 29 15 C 26.80271 15 25 16.802706 25 19 C 25 21.197294 26.80271 23 29 23 C 31.19729 23 33 21.197294 33 19 C 33 16.802706 31.19729 15 29 15 z M 29 17 C 30.11641 17 31 17.883586 31 19 C 31 20.116414 30.11641 21 29 21 C 27.88359 21 27 20.116414 27 19 C 27 17.883586 27.88359 17 29 17 z M 12 18 C 9.80271 18 8 19.802706 8 22 C 8 24.197294 9.80271 26 12 26 C 14.19729 26 16 24.197294 16 22 C 16 19.802706 14.19729 18 12 18 z M 12 20 C 13.11641 20 14 20.883586 14 22 C 14 23.116414 13.11641 24 12 24 C 10.88359 24 10 23.116414 10 22 C 10 20.883586 10.88359 20 12 20 z M 36 22 C 33.80271 22 32 23.802706 32 26 C 32 28.197294 33.80271 30 36 30 C 38.19729 30 40 28.197294 40 26 C 40 23.802706 38.19729 22 36 22 z M 36 24 C 37.11641 24 38 24.883586 38 26 C 38 27.116414 37.11641 28 36 28 C 34.88359 28 34 27.116414 34 26 C 34 24.883586 34.88359 24 36 24 z M 19 25 C 16.80271 25 15 26.802706 15 29 C 15 31.197294 16.80271 33 19 33 C 21.19729 33 23 31.197294 23 29 C 23 26.802706 21.19729 25 19 25 z M 19 27 C 20.11641 27 21 27.883586 21 29 C 21 30.116414 20.11641 31 19 31 C 17.88359 31 17 30.116414 17 29 C 17 27.883586 17.88359 27 19 27 z M 26 32 C 23.80271 32 22 33.802706 22 36 C 22 38.197294 23.80271 40 26 40 C 28.19729 40 30 38.197294 30 36 C 30 33.802706 28.19729 32 26 32 z M 26 34 C 27.11641 34 28 34.883586 28 36 C 28 37.116414 27.11641 38 26 38 C 24.88359 38 24 37.116414 24 36 C 24 34.883586 24.88359 34 26 34 z " transform="translate(-1.9073486e-6,0)"></path></svg>