<svg height='100px' width='100px'  fill="#FFFFFF" xmlns="http://www.w3.org/2000/svg" xmlns:xlink="http://www.w3.org/1999/xlink" version="1.1" x="0px" y="0px" viewBox="0 0 100 100" enable-background="new 0 0 100 100" xml:space="preserve"><g><path d="M35.868,74.451c-0.63,0-1.208-0.232-1.63-0.652l-15.249-15.25c-0.479-0.477-0.707-1.139-0.643-1.859   c0.06-0.676,0.373-1.328,0.883-1.838l3.043-3.041c0.567-0.568,1.321-0.894,2.068-0.894c0.629,0,1.207,0.231,1.629,0.653   l15.248,15.248c0.479,0.479,0.707,1.139,0.644,1.861c-0.06,0.674-0.374,1.326-0.884,1.836l-3.042,3.043   C37.368,74.127,36.614,74.451,35.868,74.451z M24.341,52.309c-0.381,0-0.775,0.178-1.084,0.486l-3.042,3.041   c-0.28,0.279-0.45,0.627-0.481,0.977c-0.027,0.303,0.059,0.57,0.241,0.752l15.248,15.25c0.202,0.203,0.462,0.244,0.646,0.244   c0.379,0,0.774-0.176,1.084-0.484l3.041-3.043c0.279-0.279,0.45-0.625,0.48-0.977c0.027-0.303-0.058-0.57-0.24-0.752L24.985,52.555   C24.782,52.352,24.522,52.309,24.341,52.309z"></path></g><g><path d="M9.542,87.771c-1.209,0-2.345-0.471-3.199-1.326s-1.325-1.99-1.325-3.199s0.471-2.346,1.325-3.199L22.43,63.959l6.399,6.4   L12.741,86.445C11.888,87.301,10.751,87.771,9.542,87.771z M22.43,65.928L7.327,81.031c-0.592,0.59-0.918,1.377-0.918,2.215   s0.326,1.625,0.918,2.215c0.592,0.592,1.379,0.918,2.215,0.918c0.837,0,1.625-0.326,2.216-0.918L26.86,70.359L22.43,65.928z"></path></g><g><path d="M61.408,63.844L19.562,29.257l-1.732-17.026l17.026,1.732l0.183,0.22l34.404,41.627L61.408,63.844z M20.888,28.547   l40.431,33.416l6.242-6.242L34.146,15.29l-14.759-1.5L20.888,28.547z"></path></g><g><path d="M64.136,76.068L64.136,76.068c-0.746,0-1.5-0.326-2.068-0.893l-3.042-3.043c-1.086-1.084-1.193-2.744-0.24-3.697   l15.249-15.248c0.42-0.422,0.998-0.654,1.628-0.654c0.748,0,1.502,0.326,2.069,0.895l3.041,3.041   c0.51,0.51,0.824,1.162,0.884,1.836c0.064,0.723-0.164,1.383-0.644,1.863L65.766,75.416C65.344,75.838,64.766,76.068,64.136,76.068   z M75.662,53.926c-0.181,0-0.44,0.043-0.645,0.244L59.77,69.42c-0.403,0.404-0.293,1.193,0.241,1.729l3.042,3.041   c0.308,0.309,0.703,0.486,1.083,0.486l0,0c0.183,0,0.443-0.043,0.646-0.246l15.247-15.248c0.183-0.182,0.269-0.449,0.242-0.752   c-0.032-0.346-0.207-0.701-0.481-0.977l-3.043-3.041C76.437,54.102,76.042,53.926,75.662,53.926z"></path></g><g><path d="M90.461,89.387c-1.209,0-2.346-0.471-3.2-1.324L71.175,71.977l6.399-6.4l16.087,16.086c1.764,1.764,1.764,4.635,0,6.4   C92.807,88.916,91.67,89.387,90.461,89.387z M73.143,71.977l15.103,15.102c0.593,0.592,1.379,0.916,2.216,0.916   s1.624-0.324,2.216-0.916c1.221-1.221,1.221-3.209,0-4.432L77.574,67.545L73.143,71.977z"></path></g><g><polygon points="20.466,29.556 19.983,28.25 30.109,24.511 33.848,14.385 35.153,14.867 31.192,25.594  "></polygon></g><g><rect x="23.551" y="41.496" transform="matrix(0.7071 0.7071 -0.7071 0.7071 43.8336 -21.4357)" width="48.48" height="1.393"></rect></g><g><g><polygon points="47.132,53.365 38.685,60.346 36.056,57.717 43.45,50.322 42.373,49.431 35.071,56.732 32.442,54.104     38.767,46.45 37.694,45.563 30.562,54.193 38.596,62.227 48.226,54.268   "></polygon></g><g><path d="M65.147,12.346L49.994,30.682l0.902,1.093l14.371-17.39l3.277,8.874L55.029,36.775l0.891,1.077l13.609-13.609l8.873,3.275    L59.971,42.754l0.887,1.072l19.364-16.005l0.22-0.181l1.733-17.027L65.147,12.346z M79.177,26.321l-9.282-3.427l-3.428-9.283    l14.149-1.439L79.177,26.321z"></path></g></g></svg>