<svg height='100px' width='100px'  fill="#FFFFFF" xmlns="http://www.w3.org/2000/svg" xmlns:xlink="http://www.w3.org/1999/xlink" version="1.1" x="0px" y="0px" viewBox="0 0 64 64" style="enable-background:new 0 0 64 64;" xml:space="preserve"><g><path d="M10.405,50.052c5.868,0.21,11.643,1.731,16.854,4.44c0.453-1.412,1.499-2.557,2.862-3.112l-5.499-6.285l-10.544,1.976   C12.388,47.389,11.042,48.544,10.405,50.052z"></path><path d="M36.74,54.492c5.212-2.71,10.986-4.23,16.855-4.44c-0.637-1.508-1.983-2.663-3.674-2.981l-10.544-1.976l-5.499,6.285   C35.241,51.936,36.287,53.08,36.74,54.492z"></path><path d="M16.257,22.285c0.287,0.575,0.801,1.021,1.41,1.224L21,24.62v-1.858l-4.983-1.424   C16.036,21.667,16.11,21.992,16.257,22.285z"></path><path d="M38,43.631v-0.822l-1.247,1.04c-0.897,0.747-2.034,1.158-3.201,1.158h-3.104c-1.167,0-2.304-0.411-3.2-1.158L26,42.809   v0.822l6,6.857L38,43.631z"></path><path d="M47.742,22.287c0.148-0.294,0.222-0.62,0.241-0.948L43,22.762v1.858l3.332-1.111C46.942,23.306,47.456,22.86,47.742,22.287   z"></path><path d="M49,34.566c0,2.298-1.76,4.172-4,4.397v1.631c0,1.179-0.459,2.287-1.293,3.121c-0.048,0.048-0.106,0.083-0.157,0.129   l5.42,1.016l0.037-0.022C51.47,43.36,53,40.657,53,37.784c0-1.308,0.246-2.585,0.731-3.798l0.663-1.658   c-1.878,0.329-3.784,0.537-5.691,0.628l0.068,0.205C48.923,33.615,49,34.087,49,34.566z"></path><path d="M21.707,42.3c0.456,0.456,1.062,0.707,1.707,0.707H24v-1.865l-0.201-0.168C22.656,40.022,22,38.623,22,37.134v-3.413   c-1.744-0.632-3-2.29-3-4.249c0-1.13,0.425-2.187,1.174-3.02L18,25.727v4.721c0,0.479-0.077,0.951-0.229,1.405l-0.646,1.939   C17.042,34.043,17,34.303,17,34.566c0,1.195,0.864,2.188,2,2.397v-1.955h2v5.586C21,41.238,21.251,41.844,21.707,42.3z"></path><path d="M36.789,18.007c-1.411,0-2.721,0.701-3.504,1.875L32,21.81l-1.285-1.928c-0.783-1.174-2.093-1.875-3.504-1.875   c-2.322,0-4.211,1.889-4.211,4.211v4.203l-1.258,1.258C21.264,28.158,21,28.794,21,29.472c0,1.397,1.138,2.535,2.535,2.535H26v2h-2   v3.127c0,0.893,0.394,1.732,1.079,2.304l3.449,2.874c0.537,0.448,1.22,0.695,1.92,0.695h3.104c0.7,0,1.383-0.247,1.921-0.695   l3.447-2.874c0.687-0.571,1.08-1.411,1.08-2.304v-3.127h-2v-2h2.465c1.397,0,2.535-1.138,2.535-2.535   c0-0.678-0.264-1.314-0.742-1.793L41,26.421v-4.203C41,19.896,39.111,18.007,36.789,18.007z M24.553,25.902l0.895-1.789l4,2   l-0.895,1.789L24.553,25.902z M38,38.007h-2v2h-2v-2h-4v2h-2v-2h-2v-2h12V38.007z M35.447,27.902l-0.895-1.789l4-2l0.895,1.789   L35.447,27.902z"></path><path d="M42.813,20.735L48,19.253v-1.802l-5.609,2.103C42.57,19.929,42.712,20.323,42.813,20.735z"></path><path d="M42,37.134c0,1.488-0.656,2.888-1.8,3.841L40,41.142v1.865h0.586c0.645,0,1.251-0.251,1.707-0.707S43,41.238,43,40.593   v-5.586h2v1.955c1.136-0.209,2-1.201,2-2.397c0-0.263-0.042-0.522-0.125-0.772l-0.646-1.939C46.077,31.4,46,30.927,46,30.449   v-4.721l-2.174,0.725c0.75,0.833,1.174,1.89,1.174,3.02c0,1.96-1.256,3.617-3,4.249V37.134z"></path><path d="M10,61.007h7V52.89c-2.298-0.501-4.641-0.787-7-0.85V61.007z"></path><path d="M27.042,56.628C24.492,55.233,21.79,54.15,19,53.38v7.628h10v-1.021C27.92,59.173,27.212,57.955,27.042,56.628z"></path><path d="M32,53.007c-1.654,0-3,1.346-3,3c0,1.068,0.562,2.033,1.503,2.581L31,58.877v2.13h2v-2.13l0.497-0.289   C34.438,58.041,35,57.076,35,56.007C35,54.353,33.654,53.007,32,53.007z"></path><path d="M47,61.007h7v-8.968c-2.359,0.063-4.702,0.349-7,0.85V61.007z"></path><path d="M35,59.987v1.021h10V53.38c-2.79,0.77-5.492,1.853-8.042,3.248C36.788,57.955,36.08,59.173,35,59.987z"></path><path d="M44.774,15.381L43.146,3.163c-0.022-0.173-0.32-0.184-0.354-0.011l-1.736,8.68C42.466,12.8,43.726,13.994,44.774,15.381z"></path><path d="M20.517,17.008l2.275,0.853c1.127-1.143,2.691-1.854,4.419-1.854c1.867,0,3.615,0.833,4.789,2.256   c1.174-1.423,2.922-2.256,4.789-2.256c1.728,0,3.292,0.711,4.419,1.854l2.275-0.853c-2.605-3.726-6.9-6-11.483-6   S23.122,13.282,20.517,17.008z"></path><path d="M22.945,11.832l-1.736-8.68c-0.035-0.174-0.332-0.162-0.354,0.011l-1.629,12.218C20.274,13.994,21.534,12.8,22.945,11.832z   "></path><path d="M21.609,19.554L16,17.451v1.802l5.187,1.482C21.288,20.323,21.43,19.929,21.609,19.554z"></path><path d="M11,37.784c0,2.873,1.53,5.576,3.993,7.054l0.037,0.022l5.42-1.016c-0.05-0.046-0.108-0.08-0.157-0.129   C19.459,42.88,19,41.772,19,40.593v-1.631c-2.24-0.225-4-2.099-4-4.397c0-0.479,0.077-0.951,0.229-1.405l0.068-0.205   c-1.907-0.091-3.813-0.299-5.691-0.628l0.663,1.659C10.754,35.199,11,36.476,11,37.784z"></path></g></svg>