<svg height='100px' width='100px'  fill="#FFFFFF" xmlns="http://www.w3.org/2000/svg" xmlns:xlink="http://www.w3.org/1999/xlink" version="1.1" x="0px" y="0px" viewBox="0 0 64 64" style="enable-background:new 0 0 64 64;" xml:space="preserve"><g><path d="M43,21.007v7c0,3.852-1.994,7.242-5,9.208v2.011L41.096,40c1.112-0.036,2.101-0.675,2.594-1.697l0.398-0.823l0.855,0.323   c2.093,0.792,4.056-0.8,4.056-2.796c0-0.261-0.047-0.536-0.146-0.864l-0.177-0.578l0.43-0.425C49.683,32.571,50,31.813,50,31.007   c0-1.654-1.346-3-3-3h-1v-4.586c0-0.645-0.251-1.251-0.707-1.707s-1.062-0.707-1.707-0.707H43z"></path><rect x="35" y="17.007" width="9" height="2"></rect><path d="M29,13.007h6v2h9V6.731l-6.167,3.523L32,4.421l-5.833,5.833L20,6.731v8.276h9V13.007z M31,8.007h2v2h-2V8.007z"></path><path d="M12,45.862v15.146h3v-1.78c0-5.463-0.549-10.934-1.621-16.294C12.543,43.64,12,44.684,12,45.862z"></path><path d="M50.621,42.933C49.549,48.293,49,53.764,49,59.227v1.78h3V45.862C52,44.684,51.457,43.64,50.621,42.933z"></path><path d="M41,28.007v-7H23v7c0,4.963,4.037,9,9,9S41,32.97,41,28.007z M26,24.007c0-0.552,0.448-1,1-1s1,0.448,1,1   c0,0.552-0.448,1-1,1S26,24.56,26,24.007z M37,34.007H27v-3c0-1.654,1.346-3,3-3h4c1.654,0,3,1.346,3,3V34.007z M37,25.007   c-0.552,0-1-0.448-1-1c0-0.552,0.448-1,1-1s1,0.448,1,1C38,24.56,37.552,25.007,37,25.007z"></path><path d="M34,30.007h-4c-0.552,0-1,0.448-1,1v1h6v-1C35,30.456,34.552,30.007,34,30.007z"></path><rect x="31" y="15.007" width="2" height="4"></rect><path d="M28,38.243v1.064c1.457,0.535,2.822,1.325,4,2.337c1.178-1.012,2.543-1.801,4-2.338v-1.063   c-1.242,0.487-2.588,0.764-4,0.764S29.242,38.73,28,38.243z"></path><rect x="20" y="17.007" width="9" height="2"></rect><path d="M15,35.007c0,1.996,1.962,3.589,4.056,2.796l0.855-0.323l0.398,0.823c0.493,1.022,1.482,1.662,2.594,1.697L26,39.226   v-2.011c-3.006-1.966-5-5.356-5-9.208v-7h-0.586c-0.645,0-1.251,0.251-1.707,0.707S18,22.777,18,23.421v4.586h-1   c-1.654,0-3,1.346-3,3c0,0.806,0.317,1.563,0.893,2.133l0.429,0.424l-0.175,0.576C15.047,34.471,15,34.747,15,35.007z"></path><path d="M37,41.061c-1.485,0.495-2.853,1.327-4,2.393v7.553h7v10h2v-6.676c0-3.943,0.587-7.842,1.731-11.611l-6.693-1.673   L37,41.061z M37,47.007h-2v-2h2V47.007z"></path><path d="M46.421,42.415l-0.593,0.297C44.618,46.473,44,50.379,44,54.332v6.676h3v-1.78c0-5.754,0.596-11.519,1.758-17.158   c-0.201-0.032-0.403-0.062-0.612-0.062C47.552,42.007,46.955,42.148,46.421,42.415z"></path><rect x="26" y="53.007" width="12" height="8"></rect><path d="M31,43.454c-1.147-1.066-2.515-1.898-4-2.392l-0.04-0.013l-6.691,1.672C21.413,46.489,22,50.389,22,54.332v6.676h2v-10h7   V43.454z M29,47.007h-2v-2h2V47.007z"></path><path d="M17.578,42.415c-0.533-0.267-1.13-0.407-1.724-0.407c-0.21,0-0.412,0.03-0.612,0.062C16.404,47.708,17,53.473,17,59.227   v1.78h3v-6.676c0-3.952-0.618-7.859-1.828-11.62L17.578,42.415z"></path></g></svg>